<svg width="68" height="68" viewBox="0 0 68 68" fill="none" xmlns="http://www.w3.org/2000/svg">
<circle cx="34" cy="34" r="34" fill="black"/>
<path d="M46.4075 30.8982H37.102V21.5926C37.102 20.4508 36.176 19.5247 35.0341 19.5247H32.9662C31.8243 19.5247 30.8983 20.4508 30.8983 21.5926V30.8982H21.5928C20.4509 30.8982 19.5249 31.8242 19.5249 32.9661V35.0339C19.5249 36.1758 20.4509 37.1018 21.5928 37.1018H30.8983V46.4074C30.8983 47.5492 31.8243 48.4752 32.9662 48.4752H35.0341C36.176 48.4752 37.102 47.5492 37.102 46.4074V37.1018H46.4075C47.5494 37.1018 48.4754 36.1758 48.4754 35.0339V32.9661C48.4754 31.8242 47.5494 30.8982 46.4075 30.8982Z" fill="white"/>
</svg>
